<svg xmlns="http://www.w3.org/2000/svg" width="900" height="150" viewBox="0 0 900 150" fill="none">
  <g fill="#0f2324" fill-opacity="0.075">
    <rect x="0" y="96" width="44" height="54" />
    <rect x="50" y="72" width="30" height="78" />
    <rect x="86" y="108" width="52" height="42" />
    <path d="M144 150V60l22-16 22 16v90z" />
    <rect x="196" y="88" width="36" height="62" />
    <rect x="238" y="112" width="58" height="38" />
    <rect x="302" y="66" width="26" height="84" />
    <rect x="308" y="46" width="14" height="22" />
    <rect x="334" y="100" width="48" height="50" />
    <rect x="388" y="80" width="34" height="70" />
    <rect x="428" y="118" width="64" height="32" />
    <path d="M498 150V74h48v76z" />
    <rect x="514" y="52" width="16" height="24" />
    <rect x="552" y="104" width="42" height="46" />
    <rect x="600" y="84" width="30" height="66" />
    <rect x="636" y="116" width="56" height="34" />
    <rect x="700" y="92" width="38" height="58" />
    <rect x="744" y="110" width="46" height="40" />
    <rect x="858" y="98" width="42" height="52" />
  </g>
  <g stroke="#0f2324" stroke-opacity="0.075" stroke-width="3" fill="none">
    <circle cx="818" cy="86" r="34" />
    <path d="M818 52v68M784 86h68M794 62l48 48M842 62l-48 48" stroke-width="1.6" />
  </g>
  <rect x="814" y="118" width="8" height="32" fill="#0f2324" fill-opacity="0.075" />
</svg>
